HIERARCHY
ROOT Hips
{
	OFFSET 0.00000 0.00000 0.00000
	CHANNELS 6 Xposition Yposition Zposition Zrotation Yrotation Xrotation 
	JOINT LHipJoint
	{
		OFFSET 0 0 0
		CHANNELS 3 Zrotation Yrotation Xrotation
		JOINT LeftHip
		{
			OFFSET 1.54859 -1.61379 0.86856
			CHANNELS 3 Zrotation Yrotation Xrotation
			JOINT LeftKnee
			{
				OFFSET 2.25087 -6.18423 0.00000
				CHANNELS 3 Zrotation Yrotation Xrotation
				JOINT LeftAnkle
				{
					OFFSET 2.40328 -6.60297 0.00000
					CHANNELS 3 Zrotation Yrotation Xrotation
					JOINT LeftToe
					{
						OFFSET 0.17435 -0.47901 2.02453
						CHANNELS 3 Zrotation Yrotation Xrotation
						End Site
						{
							OFFSET 0.00000 -0.00000 1.04844
						}
					}
				}
			}
		}
	}
	JOINT RHipJoint
	{
		OFFSET 0 0 0
		CHANNELS 3 Zrotation Yrotation Xrotation
		JOINT RightHip
		{
			OFFSET -1.54669 -1.61379 0.86856
			CHANNELS 3 Zrotation Yrotation Xrotation
			JOINT RightKnee
			{
				OFFSET -2.28132 -6.26789 0.00000
				CHANNELS 3 Zrotation Yrotation Xrotation
				JOINT RightAnkle
				{
					OFFSET -2.51636 -6.91365 0.00000
					CHANNELS 3 Zrotation Yrotation Xrotation
					JOINT RightToe
					{
						OFFSET -0.15124 -0.41552 2.21090
						CHANNELS 3 Zrotation Yrotation Xrotation
						End Site
						{
							OFFSET -0.00000 -0.00000 1.13399
						}
					}
				}
			}
		}
	}
	JOINT lowerback
	{
		OFFSET 0 0 0
		CHANNELS 3 Zrotation Yrotation Xrotation
		JOINT Chest
		{
			OFFSET -0.04287 2.26161 -0.25690
			CHANNELS 3 Zrotation Yrotation Xrotation
			JOINT Chest2
			{
				OFFSET 0.02248 2.28395 -0.10140
				CHANNELS 3 Zrotation Yrotation Xrotation
				JOINT lowerneck
				{
					OFFSET 0 0 0
					CHANNELS 3 Zrotation Yrotation Xrotation
					JOINT Neck
					{
						OFFSET -0.11644 1.38496 0.11345
						CHANNELS 3 Zrotation Yrotation Xrotation
						JOINT Head
						{
							OFFSET 0.29383 1.36600 0.06642
							CHANNELS 3 Zrotation Yrotation Xrotation
							End Site
							{
								OFFSET 0.11075 1.41395 -0.00294
							}
						}
					}
				}
				JOINT LeftCollar
				{
					OFFSET 0 0 0
					CHANNELS 3 Zrotation Yrotation Xrotation
					JOINT LeftShoulder
					{
						OFFSET 3.51628 0.59542 -0.30346
CHANNELS 3 Zrotation Xrotation Yrotation
						JOINT LeftElbow
						{
OFFSET 0 -4.764050 0.000000
CHANNELS 3 Zrotation Xrotation Yrotation
							JOINT LeftWrist
							{
OFFSET 0 -3.137590 -0.000000
CHANNELS 3 Zrotation Xrotation Yrotation
								JOINT lhand
								{
									OFFSET 0 0 0
CHANNELS 3 Zrotation Xrotation Yrotation
									JOINT LFingers
									{
OFFSET 0 -0.732260 -0.000000
CHANNELS 3 Zrotation Xrotation Yrotation
										End Site
										{
OFFSET 0 -0.590370 -0.000000
										}
									}
								}
								JOINT LThumb
								{
OFFSET 0 0.000000 0.000000
CHANNELS 3 Zrotation Xrotation Yrotation
									End Site
									{
OFFSET 0 -0.599380 0.599380
									}
								}
							}
						}
					}
				}
				JOINT RightCollar
				{
					OFFSET 0 0 0
					CHANNELS 3 Zrotation Yrotation Xrotation
					JOINT RightShoulder
					{
						OFFSET -3.30990 0.84213 -0.36430
CHANNELS 3 Zrotation Xrotation Yrotation
						JOINT RightElbow
						{
OFFSET 0 -5.101610 -0.000000
CHANNELS 3 Zrotation Xrotation Yrotation
							JOINT RightWrist
							{
OFFSET 0 -3.232670 -0.000000
CHANNELS 3 Zrotation Xrotation Yrotation
								JOINT rhand
								{
									OFFSET 0 0 0
CHANNELS 3 Zrotation Xrotation Yrotation
									JOINT RFingers
									{
OFFSET 0 -0.702000 -0.000000
CHANNELS 3 Zrotation Xrotation Yrotation
										End Site
										{
OFFSET 0 -0.565970 -0.000000
										}
									}
								}
								JOINT RThumb
								{
OFFSET 0 0.000000 0.000000
CHANNELS 3 Zrotation Xrotation Yrotation
									End Site
									{
OFFSET 0 -0.574610 0.574610
									}
								}
							}
						}
					}
				}
			}
		}
	}
}
MOTION
Frames: 5
Frame Time: 0.008333333333333333
-37.656600 16.105900 0.950400 0.205600 75.565300 3.428500 0.000000 0.000000 0.000000 -10.751000 -2.703900 -19.213500 6.181200 14.601700 45.704800 -0.006000 3.934700 -5.352500 2.417800 -9.686800 -27.968300 0.000000 0.000000 0.000000 14.993400 3.345700 -44.367500 -21.685700 -19.931700 94.934100 -0.757700 -1.161400 -16.903600 -2.284900 9.435900 -27.168600 -8.251900 3.171000 19.174900 1.084300 3.417900 10.149200 5.168300 1.623600 -0.184600 -12.495700 -4.200000 0.684400 19.094600 -2.038900 -25.237100 8.817500 -1.101900 -7.174100 0.000000 -0.000000 0.000000 16.473700 1.752600 -43.935500 42.485600 -49.475500 20.309000 44.225400 21.747200 -34.952600 0.000000 0.000000 0.000000 -7.125000 0.000000 0.000000 20.223700 73.425400 -13.760600 0.000000 -0.000000 0.000000 -16.715100 -13.652700 -7.865000 -49.275300 -52.699000 -25.596600 -29.170000 -24.378600 -34.101900 0.000000 0.000000 0.000000 7.125000 0.000000 -0.000000 1.903700 -7.793200 2.145300
-37.578277 16.144867 0.989367 -0.622333 75.279684 2.507167 0.000000 0.000000 0.000000 -10.608227 -3.557669 -18.638339 6.233581 14.650648 45.911633 -0.062557 5.218875 -5.312861 2.096013 -9.003905 -25.848619 0.000000 0.000000 0.000000 15.141446 3.700791 -44.512998 -21.685311 -19.931735 94.932967 -0.774901 -0.857168 -16.966917 -2.058566 8.957679 -25.683220 -8.124948 3.108320 18.967147 1.003039 3.387356 10.301316 5.028465 1.603002 0.099848 -12.356714 -4.102742 0.559961 19.140999 -1.850931 -25.260848 8.802246 -1.017949 -7.193884 0.000000 0.000000 0.000000 17.081457 1.930871 -43.719855 42.929066 -49.709054 20.647740 43.912390 19.685243 -33.447931 0.000000 0.000000 0.000000 -7.125000 0.000000 0.000000 19.449847 71.651360 -12.522293 0.000000 0.000000 0.000000 -16.486466 -13.746525 -7.891721 -49.635169 -52.845383 -25.883632 -28.588115 -24.557013 -33.897899 0.000000 0.000000 0.000000 7.125000 0.000000 0.000000 2.179937 -7.423067 2.442171
-37.499954 16.183834 1.028334 -1.450265 74.994068 1.585834 0.000000 0.000000 0.000000 -10.465455 -4.411438 -18.063179 6.285961 14.699595 46.118465 -0.119114 6.503050 -5.273221 1.774226 -8.321010 -23.728937 0.000000 0.000000 0.000000 15.289492 4.055882 -44.658496 -21.684921 -19.931771 94.931835 -0.792101 -0.552935 -17.030234 -1.832232 8.479458 -24.197839 -7.997995 3.045640 18.759394 0.921778 3.356813 10.453432 4.888630 1.582403 0.384296 -12.217729 -4.005484 0.435521 19.187399 -1.662963 -25.284596 8.786992 -0.933999 -7.213669 0.000000 0.000000 0.000000 17.689214 2.109142 -43.504209 43.372532 -49.942608 20.986480 43.599381 17.623287 -31.943262 0.000000 0.000000 0.000000 -7.125000 0.000000 0.000000 18.675994 69.877320 -11.283987 0.000000 0.000000 0.000000 -16.257831 -13.840350 -7.918442 -49.995038 -52.991765 -26.170663 -28.006230 -24.735425 -33.693897 0.000000 0.000000 0.000000 7.125000 0.000000 0.000000 2.456174 -7.052934 2.739042
-37.420994 16.225043 1.067536 -2.207051 74.713177 0.742448 0.000000 0.000000 0.000000 -10.328007 -5.104915 -17.523054 6.324981 14.736078 46.272565 -0.171921 7.658151 -5.164295 1.653135 -8.016658 -22.819119 0.000000 0.000000 0.000000 15.420928 4.399033 -44.800306 -21.679794 -19.932183 94.916810 -0.808252 -0.257252 -17.087547 -1.620284 8.021263 -22.781122 -7.805555 2.963793 18.468147 0.772707 3.322335 10.652104 4.645782 1.563028 0.768582 -12.016745 -3.914915 0.337074 19.269680 -1.460905 -25.372060 8.778291 -0.851654 -7.261910 0.000000 0.000000 0.000000 18.403857 2.213055 -43.281967 43.814503 -50.173518 21.324621 43.218288 15.582869 -30.642636 0.000000 0.000000 0.000000 -7.125000 0.000000 0.000000 17.830309 68.308336 -10.107104 0.000000 0.000000 0.000000 -15.920112 -13.999756 -7.962576 -50.338316 -53.130754 -26.444637 -27.489864 -24.861667 -33.443383 0.000000 0.000000 0.000000 7.125000 0.000000 0.000000 2.688579 -6.652886 2.984928
-37.339026 16.276857 1.107847 -2.627335 74.454636 0.267731 0.000000 0.000000 0.000000 -10.215742 -5.040253 -17.148639 6.300808 14.713604 46.177254 -0.206995 8.202768 -4.727660 2.481280 -9.502711 -27.631625 0.000000 0.000000 0.000000 15.473805 4.685711 -44.924674 -21.652259 -19.934377 94.836080 -0.819436 -0.002002 -17.116462 -1.476379 7.657783 -21.689163 -7.303373 2.791291 17.781996 0.302909 3.269246 11.070972 3.915709 1.549437 1.625077 -11.522527 -3.855987 0.361566 19.521673 -1.192206 -25.760880 8.800589 -0.776906 -7.444747 0.000000 0.000000 0.000000 19.624043 1.965273 -43.028522 44.249403 -50.391924 21.659927 42.515185 13.644326 -30.307082 0.000000 0.000000 0.000000 -7.125000 0.000000 0.000000 16.644878 67.709215 -9.220739 0.000000 0.000000 0.000000 -15.066449 -14.469341 -8.089069 -50.603121 -53.234772 -26.656849 -27.283385 -24.741157 -32.972878 0.000000 0.000000 0.000000 7.125000 0.000000 0.000000 2.713673 -6.111348 2.989670
